<svg xmlns="http://www.w3.org/2000/svg" width="600" height="600" version="1" viewBox="0 0 450 450"><path d="M198.5 24.6C108.3 36.8 38.4 104.5 23.5 194c-2.3 13.5-3 39.2-1.6 53 5.5 52.9 31.2 101.9 70.8 135 30.9 25.8 65.4 41.1 104.8 46.6 16.4 2.2 48.3 1.5 64-1.5 86.7-16.3 152.8-85.3 164.9-172 2.1-14.7 2.1-43 0-57-6.4-44.4-26.4-84.3-57.8-115.6-33.1-33-75.7-53.4-121.8-58.4-12.9-1.5-35.9-1.2-48.3.5zm53.2 34.9C286.1 65 317.9 81.1 343 106c15.3 15.1 24.3 27.6 33.9 46.8 25.2 50.4 22.1 113.9-7.8 162.2-23.6 37.9-60.9 65.3-103.6 75.9-48.2 12-102.3 1.3-141-27.8C87.2 335 64 296.3 56.9 250.5c-1.7-11.1-1.5-38.9.4-50 10.6-62.7 52-112.4 111.2-133.6 25.8-9.2 55.1-11.8 83.2-7.4z"/><path d="M247 99.1c-16.7 2.1-31.3 10.1-38.5 20.8-5.5 8.4-7.9 17.5-7.2 28 .6 10.4 2.3 14.7 8.4 21.2 8.4 9 14.3 11.5 48.2 20.3 12.7 3.3 24.3 7 28.6 9.1 15 7.2 20.4 18.4 16 33.1-4.3 14.4-19.6 21.2-45.4 20.1-9.8-.4-14.5-1.1-21.1-3.2-10.5-3.3-20.8-8.6-27.7-14.2-2.9-2.4-5.5-4.3-5.7-4.3-.5 0-7.8 12.2-7.4 12.5.2.1 2.8 2 5.8 4.2 17.2 12.7 37.9 19.3 60.5 19.3 26.8 0 47.2-9.4 55-25.4 6.3-12.9 5.2-31.5-2.6-41.8-8-10.7-19.1-15.8-50.9-23.6-30.9-7.6-37.2-10.5-42.7-19.9-2.4-4.1-2.8-5.8-2.7-12.3.1-19.9 12.1-29.5 38.4-30.7 9.7-.5 12.9-.2 20.5 1.7 10 2.5 18.3 6.5 24.5 11.7 2.3 2 4.2 3.4 4.4 3.2 1.5-2.1 6.6-11.1 6.6-11.8 0-1.7-14.2-10.4-21.9-13.4-13.3-5.2-27.2-6.7-43.1-4.6zM150 182v83h16V99h-16v83zM135.5 293.2c-4.8 1.7-9.3 5.5-12.2 10.6-3.7 6.2-3.9 16.5-.6 22.8 6.3 11.8 20.5 15.9 30.6 8.7 11.8-8.2 13.1-27 2.6-37-6.1-5.7-13.4-7.5-20.4-5.1zm16 6.3c13.8 10.4 7.2 35.4-9.3 35.7-8.1.1-14.7-5.2-17.2-13.9-2.5-8.4 2-20 9.1-23.6 5-2.6 12.8-1.8 17.4 1.8zM180.9 292.9c-6.9 2.1-9.9 6.1-9.9 13 0 3.1.6 4.4 3 6.5 1.7 1.4 4.8 3 6.8 3.5 2 .6 6.3 1.7 9.4 2.6 14.7 4 12.6 16.6-2.8 16.6-6.2 0-8.9-.6-12.6-3.2-3.1-2.3-4.4-2.4-5.1-.5-.4.9 1.2 2.3 4.3 4 5.9 3.2 15.9 4.4 21.3 2.7 8.2-2.7 11.3-11.8 6.2-17.9-2.9-3.4-5.4-4.5-15-6.7-8.1-1.8-11.5-4.5-11.5-8.9.1-5.8 4.1-8.6 12.2-8.6 3.3 0 6.8.7 9.1 1.9 3.1 1.6 3.8 1.6 4.8.5.9-1.1.1-1.9-4.2-3.9-5.4-2.5-11-3-16-1.6zM304.3 293.2c-1.7.6-4.4 2.4-6 4-2.3 2.4-2.8 3.8-2.8 8 0 6.6 2.6 8.8 14.1 11.9 10.4 2.7 14.4 5.6 14.4 10.3 0 4-2.2 6.2-7.6 7.4-6.7 1.5-14.8-.4-19.5-4.5-1.4-1.2-1.7-1.2-2.3.2-.3.9-.3 2.1 0 2.6 1.2 2 8.5 4.9 13.7 5.5 7.6.9 12.1-.2 16.2-3.8 3.1-2.6 3.5-3.6 3.5-7.8 0-7.8-4.5-11.4-17.5-13.6-5.2-.9-9.2-2.9-10.5-5.5-1.6-2.9-.3-7.5 2.7-9.9 3.5-2.7 12.4-2.7 17.8 0 2.9 1.5 4.1 1.7 4.6.8 1.1-1.8.2-2.8-4.5-4.9-4.4-2-11.2-2.3-16.3-.7zM207.3 293.7c.2.5 4.6 10.8 9.8 23.1 7.7 18.4 9.7 22.2 11.2 22 1.3-.2 3.2-3.5 6.5-11.5 2.6-6.2 4.9-11.3 5.3-11.3.3 0 2.7 5.2 5.3 11.5 3.5 8.5 5.2 11.5 6.5 11.5 1.4 0 4-5.1 11.1-21.8 5.1-11.9 9.5-22.3 9.8-23 .3-1-.2-1.3-1.8-1-2 .3-3.4 2.9-9.7 18.3-4 9.9-7.8 19.1-8.4 20.4-1 2.3-1.4 1.7-5.5-7.9-2.4-5.8-4.4-11-4.4-11.7 0-.6 1.6-4.8 3.5-9.3 4-9.3 4.2-10.3 1.8-9.8-1.1.2-2.9 3.3-4.9 8.3l-3.2 8-2-4.5c-1-2.5-2.5-6.2-3.3-8.3-.8-2.4-1.9-3.7-3.1-3.7-1 0-1.8.2-1.8.5s1.6 4.4 3.5 9.2c1.9 4.8 3.5 9.2 3.5 9.7 0 .6-1.9 5.7-4.2 11.4-4.9 12.2-3.5 13.4-13.9-12.5-6.6-16.3-7.7-18.3-9.7-18.3-1.3 0-2.1.3-1.9.7zM281 316c0 22.3.1 23 2 23s2-.7 2-23-.1-23-2-23-2 .7-2 23z"/></svg>